<svg width="15" height="52" viewBox="0 0 15 52" fill="none" xmlns="http://www.w3.org/2000/svg">
<path d="M8.28333 24.97L5.59104 21.2197C5.3807 20.9268 5.03996 20.9268 4.82963 21.2197C4.61929 21.5127 4.61929 21.9874 4.82963 22.2804L7.14247 25.4997L4.83047 28.7202C4.62013 29.0132 4.62013 29.4879 4.83047 29.7808C4.9353 29.9273 5.07294 30 5.21075 30C5.34857 30 5.48638 29.9268 5.59138 29.7803L8.28367 26.03C8.49367 25.7364 8.49367 25.263 8.28333 24.97ZM11.5141 24.97L8.82179 21.2197C8.61145 20.9268 8.27071 20.9268 8.06038 21.2197C7.85004 21.5127 7.85004 21.9874 8.06038 22.2804L10.3732 25.4997L8.06122 28.7202C7.85088 29.0132 7.85088 29.4879 8.06122 29.7808C8.16554 29.9273 8.30352 30 8.4415 30C8.57948 30 8.71713 29.9268 8.82213 29.7803L11.5144 26.03C11.7244 25.7364 11.7244 25.263 11.5141 24.97Z" fill="white"/>
</svg>
